<mxfile host="app.diagrams.net" modified="2024-06-18T04:50:16.810Z" agent="Mozilla/5.0 (X11; Linux x86_64) AppleWebKit/537.36 (KHTML, like Gecko) Chrome/125.0.0.0 Safari/537.36" version="24.5.5" etag="RrBui2R_6l7JG1X5AG-7" type="github">
  <diagram name="第 1 页" id="MG-MEg68l0_8rto8ONjd">
    <mxGraphModel>
      <root>
        <mxCell id="0" />
        <mxCell id="1" parent="0" />
      </root>
    </mxGraphModel>
  </diagram>
</mxfile>
